<svg width="16" height="16" viewBox="0 0 16 16" fill="none" xmlns="http://www.w3.org/2000/svg">
<path d="M11.3333 1.3335V11.3335L8 9.66683L4.66667 11.3335V1.3335H11.3333ZM3 14.6668H13C13.442 14.6668 13.866 14.4912 14.1785 14.1787C14.4911 13.8661 14.6667 13.4422 14.6667 13.0002V3.00016C14.6667 2.55814 14.4911 2.13421 14.1785 1.82165C13.866 1.50909 13.442 1.3335 13 1.3335H3C2.55798 1.3335 2.13405 1.50909 1.82149 1.82165C1.50893 2.13421 1.33334 2.55814 1.33334 3.00016V13.0002C1.33334 13.4422 1.50893 13.8661 1.82149 14.1787C2.13405 14.4912 2.55798 14.6668 3 14.6668Z" stroke="#444BAB" stroke-width="1.66667" stroke-linecap="round" stroke-linejoin="round"/>
</svg>
