<svg width="784" height="820" viewBox="0 0 784 820" fill="none" xmlns="http://www.w3.org/2000/svg">
<path d="M230.341 768.815C253.341 598.315 315.237 551.187 511.341 477.815C658.341 422.815 696.841 316.753 687.841 191.753C678.841 66.7532 688.841 -53.6854 544.841 36.8146C400.841 127.315 273.841 174.315 320.841 297.815C367.841 421.315 453.609 431.147 498.841 391.815C544.841 351.815 669.841 410.815 681.341 516.315C692.841 621.815 803.841 838.315 658.341 785.815C512.841 733.315 523.341 853.815 365.341 693.315C207.341 532.815 260.341 534.315 223.841 437.815C146.633 233.688 -176.159 133.315 128.341 114.315C432.841 95.3146 489.841 61.3146 552.341 169.315C614.841 277.315 779.341 331.315 658.341 523.315C537.341 715.315 506.841 679.315 365.341 768.815C223.841 858.315 -84.1587 539.815 148.841 463.315C381.841 386.815 271.841 290.315 417.341 208.815C562.841 127.315 585.841 89.3146 658.341 169.315C730.841 249.315 793.341 128.315 781.841 74.8146C770.341 21.3146 369.341 -29.1854 337.341 22.8146C305.341 74.8146 250.841 109.815 246.841 208.815C242.841 307.815 189.841 533.315 230.341 558.815C270.841 584.315 447.841 532.815 544.841 591.815C641.841 650.815 720.841 678.315 681.341 710.315C641.841 742.315 545.841 821.315 498.841 818.815C461.241 816.815 304.175 784.648 230.341 768.815Z" stroke="#676FD9" stroke-dasharray="10 30"/>
</svg>
