<svg width="35" height="35" viewBox="0 0 35 35" fill="none" xmlns="http://www.w3.org/2000/svg">
<path fill-rule="evenodd" clip-rule="evenodd" d="M32.8125 17.5C32.8125 13.4389 31.1992 9.54408 28.3276 6.67243C25.4559 3.80078 21.5611 2.1875 17.5 2.1875C13.4389 2.1875 9.54408 3.80078 6.67243 6.67243C3.80078 9.54408 2.1875 13.4389 2.1875 17.5C2.1875 21.5611 3.80078 25.4559 6.67243 28.3276C9.54408 31.1992 13.4389 32.8125 17.5 32.8125C21.5611 32.8125 25.4559 31.1992 28.3276 28.3276C31.1992 25.4559 32.8125 21.5611 32.8125 17.5ZM0 17.5C0 12.8587 1.84374 8.40752 5.12563 5.12563C8.40752 1.84374 12.8587 0 17.5 0C22.1413 0 26.5925 1.84374 29.8744 5.12563C33.1563 8.40752 35 12.8587 35 17.5C35 22.1413 33.1563 26.5925 29.8744 29.8744C26.5925 33.1563 22.1413 35 17.5 35C12.8587 35 8.40752 33.1563 5.12563 29.8744C1.84374 26.5925 0 22.1413 0 17.5ZM9.84375 18.5938C9.55367 18.5938 9.27547 18.4785 9.07035 18.2734C8.86523 18.0683 8.75 17.7901 8.75 17.5C8.75 17.2099 8.86523 16.9317 9.07035 16.7266C9.27547 16.5215 9.55367 16.4062 9.84375 16.4062H22.5159L17.8194 11.7119C17.7177 11.6102 17.637 11.4895 17.582 11.3566C17.5269 11.2237 17.4986 11.0813 17.4986 10.9375C17.4986 10.7937 17.5269 10.6513 17.582 10.5184C17.637 10.3855 17.7177 10.2648 17.8194 10.1631C17.9211 10.0614 18.0418 9.98077 18.1747 9.92573C18.3075 9.8707 18.4499 9.84237 18.5938 9.84237C18.7376 9.84237 18.88 9.8707 19.0128 9.92573C19.1457 9.98077 19.2664 10.0614 19.3681 10.1631L25.9306 16.7256C26.0325 16.8272 26.1133 16.9479 26.1684 17.0808C26.2236 17.2137 26.252 17.3561 26.252 17.5C26.252 17.6439 26.2236 17.7863 26.1684 17.9192C26.1133 18.0521 26.0325 18.1728 25.9306 18.2744L19.3681 24.8369C19.1627 25.0423 18.8842 25.1576 18.5938 25.1576C18.3033 25.1576 18.0248 25.0423 17.8194 24.8369C17.614 24.6315 17.4986 24.3529 17.4986 24.0625C17.4986 23.7721 17.614 23.4935 17.8194 23.2881L22.5159 18.5938H9.84375Z" fill="white"/>
</svg>
