<svg width="16" height="16" viewBox="0 0 16 16" fill="none" xmlns="http://www.w3.org/2000/svg">
<path d="M6.18233 11.8889H9.81689M8 1V1.77778M12.9498 3.05022L12.3999 3.60011M15 8H14.2222M1.77778 8H1M3.60011 3.60011L3.05022 3.05022M5.24978 10.7502C4.70601 10.2063 4.33573 9.51338 4.18576 8.75903C4.03579 8.00469 4.11286 7.22282 4.40723 6.51228C4.7016 5.80173 5.20005 5.19443 5.83956 4.76716C6.47906 4.33989 7.23089 4.11184 8 4.11184C8.76911 4.11184 9.52094 4.33989 10.1604 4.76716C10.7999 5.19443 11.2984 5.80173 11.5928 6.51228C11.8871 7.22282 11.9642 8.00469 11.8142 8.75903C11.6643 9.51338 11.294 10.2063 10.7502 10.7502L10.324 11.1757C10.0803 11.4194 9.88705 11.7087 9.7552 12.0271C9.62335 12.3455 9.55551 12.6868 9.55556 13.0314V13.4444C9.55556 13.857 9.39167 14.2527 9.09994 14.5444C8.80822 14.8361 8.41256 15 8 15C7.58744 15 7.19178 14.8361 6.90006 14.5444C6.60833 14.2527 6.44444 13.857 6.44444 13.4444V13.0314C6.44444 12.3353 6.16756 11.6672 5.676 11.1757L5.24978 10.7502Z" stroke="#2F80ED" stroke-width="1.55556" stroke-linecap="round" stroke-linejoin="round"/>
</svg>
