<svg width="28" height="28" viewBox="0 0 28 28" fill="none" xmlns="http://www.w3.org/2000/svg">
<path d="M4.18342 8.84992C3.74583 9.28751 3.5 9.881 3.5 10.4998V20.9998C3.5 21.6187 3.74583 22.2122 4.18342 22.6497C4.621 23.0873 5.21449 23.3332 5.83333 23.3332H22.1667C22.7855 23.3332 23.379 23.0873 23.8166 22.6497C24.2542 22.2122 24.5 21.6187 24.5 20.9998V10.4998C24.5 9.881 24.2542 9.28751 23.8166 8.84992C23.379 8.41234 22.7855 8.1665 22.1667 8.1665H21.0817C20.6976 8.16656 20.3195 8.07182 19.9808 7.89069C19.6422 7.70956 19.3535 7.44764 19.1403 7.12817L18.193 5.70484C17.9799 5.38537 17.6911 5.12345 17.3525 4.94232C17.0138 4.76119 16.6357 4.66645 16.2517 4.6665H11.7483C11.3643 4.66645 10.9862 4.76119 10.6475 4.94232C10.3089 5.12345 10.0201 5.38537 9.807 5.70484L8.85967 7.12817C8.64652 7.44764 8.35781 7.70956 8.01916 7.89069C7.68051 8.07182 7.30238 8.16656 6.91833 8.1665H5.83333C5.21449 8.1665 4.621 8.41234 4.18342 8.84992Z" stroke="#828282" stroke-width="2" stroke-linecap="round" stroke-linejoin="round"/>
<path d="M16.4749 17.6414C17.1313 16.985 17.5 16.0948 17.5 15.1665C17.5 14.2382 17.1313 13.348 16.4749 12.6916C15.8185 12.0353 14.9283 11.6665 14 11.6665C13.0717 11.6665 12.1815 12.0353 11.5251 12.6916C10.8687 13.348 10.5 14.2382 10.5 15.1665C10.5 16.0948 10.8687 16.985 11.5251 17.6414C12.1815 18.2978 13.0717 18.6665 14 18.6665C14.9283 18.6665 15.8185 18.2978 16.4749 17.6414Z" stroke="#828282" stroke-width="2" stroke-linecap="round" stroke-linejoin="round"/>
</svg>
