<svg width="41" height="40" viewBox="0 0 41 40" fill="none" xmlns="http://www.w3.org/2000/svg">
<path d="M18.6167 11.3071L18.6562 29.768C18.6562 30.973 17.6976 31.9536 16.4927 31.9844H16.4311C15.0151 32.0196 13.8453 30.8762 13.8453 29.4602V28.9017L13.2912 28.7698C11.7389 28.3696 10.7978 26.7997 10.9825 25.2078L11.0529 24.5965L9.73802 23.1277C8.29562 21.5182 8.50231 19.0248 10.191 17.6748L11.22 16.8524L11.2156 16.7997C11.0529 15.1242 11.994 13.5411 13.5419 12.8814C13.6694 11.0345 15.1382 10.1989 16.9896 10.1418L17.3941 10.1286C18.067 10.1066 18.6167 10.6431 18.6167 11.3071Z" stroke="#444BAB" stroke-width="1.5" stroke-miterlimit="10" stroke-linecap="round" stroke-linejoin="round"/>
<path d="M14.5928 28.304C14.5928 28.304 15.9692 26.8528 17.1609 28.5634" stroke="#444BAB" stroke-width="1.5" stroke-miterlimit="10" stroke-linecap="round" stroke-linejoin="round"/>
<path d="M11.0615 24.5963C11.0615 24.5963 12.4555 23.4353 14.2058 25.1284" stroke="#444BAB" stroke-width="1.5" stroke-miterlimit="10" stroke-linecap="round" stroke-linejoin="round"/>
<path d="M14.8125 22.2227C14.8125 22.2227 16.5627 22.9043 16.8793 24.1312" stroke="#444BAB" stroke-width="1.5" stroke-miterlimit="10" stroke-linecap="round" stroke-linejoin="round"/>
<path d="M11.1055 19.3555C11.1055 19.3555 13.0624 19.7029 12.6314 21.6378" stroke="#444BAB" stroke-width="1.5" stroke-miterlimit="10" stroke-linecap="round" stroke-linejoin="round"/>
<path d="M14.1221 17.8877C14.1221 17.8877 15.4589 19.2333 16.7694 17.9449" stroke="#444BAB" stroke-width="1.5" stroke-miterlimit="10" stroke-linecap="round" stroke-linejoin="round"/>
<path d="M16.2332 13.3535C16.2332 13.3535 16.673 14.7871 15.0898 15.0114" stroke="#444BAB" stroke-width="1.5" stroke-miterlimit="10" stroke-linecap="round" stroke-linejoin="round"/>
<path d="M20.2393 10.626C20.2393 10.626 29.3422 10.5776 29.7907 20.4985C29.7907 20.4985 29.7907 25.5029 24.8523 28.1458V31.765H20.5" stroke="#444BAB" stroke-width="1.5" stroke-miterlimit="10" stroke-linecap="round" stroke-linejoin="round"/>
<path d="M24 22.5L21.9053 26.1625V31.765" stroke="#444BAB" stroke-width="1.5" stroke-miterlimit="10" stroke-linecap="round" stroke-linejoin="round"/>
<path d="M20.2393 1V6.16272" stroke="#444BAB" stroke-width="1.5" stroke-miterlimit="10" stroke-linecap="round" stroke-linejoin="round"/>
<path d="M33.6124 6.74707L29.958 10.397" stroke="#444BAB" stroke-width="1.5" stroke-miterlimit="10" stroke-linecap="round" stroke-linejoin="round"/>
<path d="M6.96289 6.74707L10.6129 10.397" stroke="#444BAB" stroke-width="1.5" stroke-miterlimit="10" stroke-linecap="round" stroke-linejoin="round"/>
<path d="M6.16712 20.1602L1 20.0986" stroke="#444BAB" stroke-width="1.5" stroke-miterlimit="10" stroke-linecap="round" stroke-linejoin="round"/>
<path d="M1 20.1602L6.16712 20.0986" stroke="#444BAB" stroke-width="1.5" stroke-miterlimit="10" stroke-linecap="round" stroke-linejoin="round"/>
<path d="M1 20.1602L6.16712 20.0986" stroke="#444BAB" stroke-width="1.5" stroke-miterlimit="10" stroke-linecap="round" stroke-linejoin="round"/>
<path d="M6.16712 20.1602L1 20.0986" stroke="#444BAB" stroke-width="1.5" stroke-miterlimit="10" stroke-linecap="round" stroke-linejoin="round"/>
<path d="M34.4609 20.1602L39.6237 20.0986" stroke="#444BAB" stroke-width="1.5" stroke-miterlimit="10" stroke-linecap="round" stroke-linejoin="round"/>
<path d="M39.6237 20.1602L34.4609 20.0986" stroke="#444BAB" stroke-width="1.5" stroke-miterlimit="10" stroke-linecap="round" stroke-linejoin="round"/>
<path d="M15.8457 33.9561H24.7024V37.0299L21.7736 38.8373H18.6557L15.8809 36.9024L15.8457 33.9561Z" stroke="#444BAB" stroke-width="1.5" stroke-miterlimit="10" stroke-linecap="round" stroke-linejoin="round"/>
<path d="M15.8818 36.5361H24.7033" stroke="#444BAB" stroke-width="1.5" stroke-miterlimit="10" stroke-linecap="round" stroke-linejoin="round"/>
</svg>
