<svg width="18" height="18" viewBox="0 0 18 18" fill="none" xmlns="http://www.w3.org/2000/svg">
<path d="M10.6686 7.33142C10.0018 6.66486 9.09761 6.2904 8.1548 6.2904C7.212 6.2904 6.30779 6.66486 5.64102 7.33142L2.08547 10.887C1.74588 11.215 1.47501 11.6073 1.28866 12.0411C1.10232 12.4749 1.00424 12.9414 1.00013 13.4135C0.996032 13.8857 1.08599 14.3538 1.26477 14.7908C1.44355 15.2278 1.70756 15.6248 2.0414 15.9586C2.37524 16.2924 2.77222 16.5565 3.20919 16.7352C3.64615 16.914 4.11435 17.004 4.58645 16.9999C5.05856 16.9958 5.52512 16.8977 5.95891 16.7113C6.3927 16.525 6.78504 16.2541 7.11302 15.9145L8.09258 14.9359M7.4188 10.5812C8.08557 11.2478 8.98977 11.6222 9.93258 11.6222C10.8754 11.6222 11.7796 11.2478 12.4464 10.5812L16.0019 7.02564C16.6496 6.35506 17.008 5.45692 16.9999 4.52466C16.9918 3.5924 16.6178 2.70063 15.9586 2.0414C15.2994 1.38217 14.4076 1.00824 13.4753 1.00013C12.5431 0.992033 11.6449 1.35041 10.9744 1.99809L9.99658 2.97586" stroke="black" stroke-width="1.2" stroke-linecap="round" stroke-linejoin="round"/>
</svg>
