<svg width="18" height="17" viewBox="0 0 18 17" fill="none" xmlns="http://www.w3.org/2000/svg">
<path d="M5.66667 6.33301H5.675M9 6.33301H9.00833M12.3333 6.33301H12.3417M6.5 11.333H3.16667C2.72464 11.333 2.30072 11.1574 1.98816 10.8449C1.67559 10.5323 1.5 10.1084 1.5 9.66634V2.99967C1.5 2.55765 1.67559 2.13372 1.98816 1.82116C2.30072 1.5086 2.72464 1.33301 3.16667 1.33301H14.8333C15.2754 1.33301 15.6993 1.5086 16.0118 1.82116C16.3244 2.13372 16.5 2.55765 16.5 2.99967V9.66634C16.5 10.1084 16.3244 10.5323 16.0118 10.8449C15.6993 11.1574 15.2754 11.333 14.8333 11.333H10.6667L6.5 15.4997V11.333Z" stroke="#444BAB" stroke-width="1.66667" stroke-linecap="round" stroke-linejoin="round"/>
</svg>
