<svg width="271" height="323" viewBox="0 0 271 323" fill="none" xmlns="http://www.w3.org/2000/svg">
<g opacity="0.1">
<path d="M122.562 8.03091C130.434 3.1165 140.418 3.1165 148.29 8.03092L259.424 77.4114C266.532 81.8491 270.851 89.6372 270.851 98.017V224.983C270.851 233.363 266.532 241.151 259.424 245.589L148.29 314.969C140.418 319.884 130.434 319.883 122.562 314.969L11.4274 245.589C4.3191 241.151 0 233.363 0 224.983V98.0171C0 89.6372 4.31912 81.8491 11.4274 77.4114L122.562 8.03091Z" fill="white"/>
<mask id="mask0" mask-type="alpha" maskUnits="userSpaceOnUse" x="0" y="4" width="271" height="315">
<path d="M122.562 8.03091C130.434 3.1165 140.418 3.1165 148.29 8.03092L259.424 77.4114C266.532 81.8491 270.851 89.6372 270.851 98.017V224.983C270.851 233.363 266.532 241.151 259.424 245.589L148.29 314.969C140.418 319.884 130.434 319.883 122.562 314.969L11.4274 245.589C4.3191 241.151 0 233.363 0 224.983V98.0171C0 89.6372 4.31912 81.8491 11.4274 77.4114L122.562 8.03091Z" fill="#C4C4C4"/>
</mask>
<g mask="url(#mask0)">
<rect x="57.9932" y="153.718" width="24.2914" height="149.924" fill="#3A3D4E"/>
<mask id="mask1" mask-type="alpha" maskUnits="userSpaceOnUse" x="89" y="97" width="50" height="25">
<rect x="138.154" y="97.1666" width="24.2914" height="48.5828" transform="rotate(90 138.154 97.1666)" fill="#CD6767"/>
</mask>
<g mask="url(#mask1)">
<path d="M89.5712 121.458C89.5712 118.268 90.1995 115.109 91.4203 112.162C92.641 109.215 94.4303 106.537 96.686 104.281C98.9417 102.026 101.62 100.236 104.567 99.0157C107.514 97.7949 110.673 97.1666 113.863 97.1666L113.863 121.458L89.5712 121.458Z" fill="#3A3D4E"/>
</g>
<mask id="mask2" mask-type="alpha" maskUnits="userSpaceOnUse" x="132" y="97" width="50" height="25">
<rect x="181.345" y="97.1666" width="24.2914" height="48.5828" rx="1.51821" transform="rotate(90 181.345 97.1666)" fill="#CD6767"/>
</mask>
<g mask="url(#mask2)">
<path d="M134.28 121.458C133.442 121.458 132.757 120.777 132.809 119.941C133.178 114.052 135.68 108.478 139.877 104.281C144.432 99.7259 150.611 97.1666 157.053 97.1666C163.496 97.1666 169.674 99.7259 174.23 104.281C178.426 108.478 180.929 114.052 181.297 119.941C181.35 120.777 180.665 121.458 179.827 121.458H157.053L134.28 121.458Z" fill="#3A3D4E"/>
</g>
<path d="M148.707 187.12C149.546 187.12 150.225 187.8 150.225 188.639L150.225 209.894C150.225 210.732 149.546 211.412 148.707 211.412L82.2853 211.412L82.2853 187.12L148.707 187.12Z" fill="#3A3D4E"/>
<path d="M181.424 218.623L157.132 218.623L157.132 161.69C157.132 160.852 157.812 160.172 158.651 160.172L179.906 160.172C180.744 160.172 181.424 160.852 181.424 161.69L181.424 218.623Z" fill="#3A3D4E"/>
<path d="M89.4949 121.455L113.786 121.455L113.786 178.388C113.786 179.226 113.107 179.906 112.268 179.906L91.0131 179.906C90.1746 179.906 89.4949 179.226 89.4949 178.388L89.4949 121.455Z" fill="#3A3D4E"/>
<path d="M188.56 128.67L188.56 152.961L122.518 152.961C121.68 152.961 121 152.281 121 151.443L121 130.188C121 129.349 121.68 128.67 122.518 128.67L188.56 128.67Z" fill="#3A3D4E"/>
<path d="M157.132 218.623L157.132 242.915L89.5711 242.915L89.5711 220.142C89.5711 219.303 90.2508 218.623 91.0893 218.623L157.132 218.623Z" fill="#3A3D4E"/>
<rect x="156.752" y="97.1666" width="24.2914" height="42.8895" transform="rotate(90 156.752 97.1666)" fill="#3A3D4E"/>
<mask id="mask3" mask-type="alpha" maskUnits="userSpaceOnUse" x="188" y="128" width="25" height="50">
<rect x="212.848" y="177.249" width="24.2914" height="48.5828" transform="rotate(-180 212.848 177.249)" fill="#CD6767"/>
</mask>
<g mask="url(#mask3)">
<path d="M188.557 128.666C194.999 128.666 201.178 131.225 205.733 135.781C210.289 140.336 212.848 146.515 212.848 152.957L188.557 152.957L188.557 128.666Z" fill="#3A3D4E"/>
</g>
<mask id="mask4" mask-type="alpha" maskUnits="userSpaceOnUse" x="188" y="171" width="25" height="50">
<rect x="212.927" y="220.511" width="24.2914" height="48.5828" rx="1.51821" transform="rotate(-180 212.927 220.511)" fill="#CD6767"/>
</mask>
<g mask="url(#mask4)">
<path d="M188.636 173.446C188.636 172.608 189.316 171.923 190.153 171.975C196.042 172.344 201.616 174.846 205.812 179.043C210.368 183.598 212.927 189.777 212.927 196.219C212.927 202.662 210.368 208.84 205.812 213.396C201.616 217.593 196.042 220.095 190.153 220.463C189.316 220.516 188.636 219.831 188.636 218.993L188.636 196.219L188.636 173.446Z" fill="#3A3D4E"/>
</g>
<rect x="212.927" y="196.224" width="24.2914" height="43.2691" transform="rotate(-180 212.927 196.224)" fill="#3A3D4E"/>
<path d="M89.5696 242.911H113.861L113.861 318.822C113.861 319.661 113.181 320.34 112.343 320.34H91.0878C90.2493 320.34 89.5696 319.661 89.5696 318.822L89.5696 242.911Z" fill="#3A3D4E"/>
<mask id="mask5" mask-type="alpha" maskUnits="userSpaceOnUse" x="57" y="129" width="26" height="50">
<rect x="57.9932" y="129.43" width="24.2914" height="48.5828" rx="1.51821" fill="#CD6767"/>
</mask>
<g mask="url(#mask5)">
<circle cx="82.2846" cy="153.721" r="24.2914" fill="#3A3D4E"/>
</g>
<mask id="mask6" mask-type="alpha" maskUnits="userSpaceOnUse" x="157" y="218" width="25" height="25">
<rect x="157.132" y="242.911" width="24.2914" height="24.2914" transform="rotate(-90 157.132 242.911)" fill="#CD6767"/>
</mask>
<g mask="url(#mask6)">
<path d="M181.342 218.624C181.342 221.814 180.713 224.973 179.493 227.92C178.272 230.867 176.483 233.545 174.227 235.801C171.971 238.056 169.293 239.846 166.346 241.066C163.399 242.287 160.24 242.915 157.05 242.915L157.05 218.624L181.342 218.624Z" fill="#3A3D4E"/>
</g>
</g>
</g>
</svg>
