<svg width="12" height="14" viewBox="0 0 12 14" fill="none" xmlns="http://www.w3.org/2000/svg">
<path d="M3.99967 2.33333H2.66634C2.31272 2.33333 1.97358 2.47381 1.72353 2.72386C1.47348 2.97391 1.33301 3.31304 1.33301 3.66667V11.6667C1.33301 12.0203 1.47348 12.3594 1.72353 12.6095C1.97358 12.8595 2.31272 13 2.66634 13H9.33301C9.68663 13 10.0258 12.8595 10.2758 12.6095C10.5259 12.3594 10.6663 12.0203 10.6663 11.6667V3.66667C10.6663 3.31304 10.5259 2.97391 10.2758 2.72386C10.0258 2.47381 9.68663 2.33333 9.33301 2.33333H7.99967M3.99967 2.33333C3.99967 2.68696 4.14015 3.02609 4.3902 3.27614C4.64025 3.52619 4.97939 3.66667 5.33301 3.66667H6.66634C7.01996 3.66667 7.3591 3.52619 7.60915 3.27614C7.8592 3.02609 7.99967 2.68696 7.99967 2.33333M3.99967 2.33333C3.99967 1.97971 4.14015 1.64057 4.3902 1.39052C4.64025 1.14048 4.97939 1 5.33301 1H6.66634C7.01996 1 7.3591 1.14048 7.60915 1.39052C7.8592 1.64057 7.99967 1.97971 7.99967 2.33333M3.99967 8.33333L5.33301 9.66667L7.99967 7" stroke="#2F80ED" stroke-width="1.33333" stroke-linecap="round" stroke-linejoin="round"/>
</svg>
