<svg width="268" height="263" viewBox="0 0 268 263" fill="none" xmlns="http://www.w3.org/2000/svg">
<mask id="mask0" mask-type="alpha" maskUnits="userSpaceOnUse" x="0" y="0" width="268" height="263">
<rect width="268" height="263" rx="13" fill="#C4C4C4"/>
</mask>
<g mask="url(#mask0)">
<g opacity="0.8">
<rect x="52" y="84.6475" width="246" height="197.352" rx="3" stroke="#515CEE" stroke-opacity="0.1" stroke-width="10"/>
<path d="M82.3379 106.485L82.3379 114.777" stroke="#515CEE" stroke-opacity="0.1" stroke-width="10" stroke-linecap="round"/>
<path d="M104.598 106.485L104.598 114.777" stroke="#515CEE" stroke-opacity="0.1" stroke-width="10" stroke-linecap="round"/>
<path d="M126.863 106.485L126.863 114.777" stroke="#515CEE" stroke-opacity="0.1" stroke-width="10" stroke-linecap="round"/>
<path d="M149.123 106.485L149.123 114.777" stroke="#515CEE" stroke-opacity="0.1" stroke-width="10" stroke-linecap="round"/>
<path d="M171.383 106.485L171.383 114.777" stroke="#515CEE" stroke-opacity="0.1" stroke-width="10" stroke-linecap="round"/>
<path d="M193.648 106.485L193.648 114.777" stroke="#515CEE" stroke-opacity="0.1" stroke-width="10" stroke-linecap="round"/>
<path d="M215.916 106.485L215.916 114.777" stroke="#515CEE" stroke-opacity="0.1" stroke-width="10" stroke-linecap="round"/>
<path d="M238.168 106.485L238.168 114.777" stroke="#515CEE" stroke-opacity="0.1" stroke-width="10" stroke-linecap="round"/>
<path d="M260.434 106.485L260.434 114.777" stroke="#515CEE" stroke-opacity="0.1" stroke-width="10" stroke-linecap="round"/>
<path d="M82.3379 252.149L82.3379 260.442" stroke="#515CEE" stroke-opacity="0.1" stroke-width="10" stroke-linecap="round"/>
<path d="M104.598 252.148L104.598 260.441" stroke="#515CEE" stroke-opacity="0.1" stroke-width="10" stroke-linecap="round"/>
<path d="M126.863 252.148L126.863 260.441" stroke="#515CEE" stroke-opacity="0.1" stroke-width="10" stroke-linecap="round"/>
<path d="M149.123 252.148L149.123 260.441" stroke="#515CEE" stroke-opacity="0.1" stroke-width="10" stroke-linecap="round"/>
<path d="M171.383 252.148L171.383 260.441" stroke="#515CEE" stroke-opacity="0.1" stroke-width="10" stroke-linecap="round"/>
<path d="M193.648 252.148L193.648 260.441" stroke="#515CEE" stroke-opacity="0.1" stroke-width="10" stroke-linecap="round"/>
<path d="M215.916 252.148L215.916 260.441" stroke="#515CEE" stroke-opacity="0.1" stroke-width="10" stroke-linecap="round"/>
<path d="M238.168 252.148L238.168 260.441" stroke="#515CEE" stroke-opacity="0.1" stroke-width="10" stroke-linecap="round"/>
<path d="M260.434 252.148L260.434 260.441" stroke="#515CEE" stroke-opacity="0.1" stroke-width="10" stroke-linecap="round"/>
<path d="M219.836 183.112C221.176 183.88 221.176 185.813 219.836 186.582L141.329 231.602C139.995 232.367 138.334 231.404 138.334 229.867L138.334 139.826C138.334 138.289 139.995 137.327 141.329 138.091L219.836 183.112Z" stroke="#515CEE" stroke-opacity="0.1" stroke-width="10" stroke-linecap="round" stroke-linejoin="round"/>
<path d="M83.1621 82.9895V66.4951C83.1621 62.6291 86.2961 59.4951 90.1621 59.4951H255.931C259.797 59.4951 262.931 62.6291 262.931 66.4951V82.9895" stroke="#515CEE" stroke-opacity="0.1" stroke-width="10"/>
<path d="M111.551 59.4943V40C111.551 37.7909 113.342 36 115.551 36H230.551C232.76 36 234.551 37.7909 234.551 40V59.4943" stroke="#515CEE" stroke-opacity="0.1" stroke-width="10"/>
</g>
</g>
</svg>
