<svg width="74" height="74" viewBox="0 0 74 74" fill="none" xmlns="http://www.w3.org/2000/svg">
<rect x="2" y="15.8428" width="70" height="56.1572" rx="3" stroke="#515CEE" stroke-width="3"/>
<path d="M10.6328 22.0566L10.6328 24.4162" stroke="#515CEE" stroke-width="3" stroke-linecap="round"/>
<path d="M16.9668 22.0566L16.9668 24.4162" stroke="#515CEE" stroke-width="3" stroke-linecap="round"/>
<path d="M23.3027 22.0566L23.3027 24.4162" stroke="#515CEE" stroke-width="3" stroke-linecap="round"/>
<path d="M29.6367 22.0566L29.6367 24.4162" stroke="#515CEE" stroke-width="3" stroke-linecap="round"/>
<path d="M35.9707 22.0566L35.9707 24.4162" stroke="#515CEE" stroke-width="3" stroke-linecap="round"/>
<path d="M42.3066 22.0566L42.3066 24.4162" stroke="#515CEE" stroke-width="3" stroke-linecap="round"/>
<path d="M48.6426 22.0566L48.6426 24.4162" stroke="#515CEE" stroke-width="3" stroke-linecap="round"/>
<path d="M54.9746 22.0566L54.9746 24.4162" stroke="#515CEE" stroke-width="3" stroke-linecap="round"/>
<path d="M61.3105 22.0566L61.3105 24.4162" stroke="#515CEE" stroke-width="3" stroke-linecap="round"/>
<path d="M10.6328 63.5059L10.6328 65.8654" stroke="#515CEE" stroke-width="3" stroke-linecap="round"/>
<path d="M16.9668 63.5059L16.9668 65.8654" stroke="#515CEE" stroke-width="3" stroke-linecap="round"/>
<path d="M23.3027 63.5059L23.3027 65.8654" stroke="#515CEE" stroke-width="3" stroke-linecap="round"/>
<path d="M29.6367 63.5059L29.6367 65.8654" stroke="#515CEE" stroke-width="3" stroke-linecap="round"/>
<path d="M35.9707 63.5059L35.9707 65.8654" stroke="#515CEE" stroke-width="3" stroke-linecap="round"/>
<path d="M42.3066 63.5059L42.3066 65.8654" stroke="#515CEE" stroke-width="3" stroke-linecap="round"/>
<path d="M48.6426 63.5059L48.6426 65.8654" stroke="#515CEE" stroke-width="3" stroke-linecap="round"/>
<path d="M54.9746 63.5059L54.9746 65.8654" stroke="#515CEE" stroke-width="3" stroke-linecap="round"/>
<path d="M61.3105 63.5059L61.3105 65.8654" stroke="#515CEE" stroke-width="3" stroke-linecap="round"/>
<path d="M47.5937 42.6197C48.9338 43.3882 48.9338 45.3212 47.5937 46.0896L29.5615 56.4303C28.2281 57.195 26.5665 56.2324 26.5665 54.6954L26.5665 34.014C26.5665 32.477 28.2281 31.5144 29.5615 32.279L47.5937 42.6197Z" stroke="#515CEE" stroke-width="3" stroke-linecap="round" stroke-linejoin="round"/>
<path d="M10.8672 15.3709V15.3709C10.8672 11.6787 13.8603 8.68555 17.5526 8.68555H55.3357C59.0279 8.68555 62.021 11.6787 62.021 15.3709V15.3709" stroke="#515CEE" stroke-width="3"/>
<path d="M18.9453 8.68538V6C18.9453 3.79086 20.7362 2 22.9453 2H49.9453C52.1545 2 53.9453 3.79086 53.9453 6V8.68538" stroke="#515CEE" stroke-width="3"/>
</svg>
