<svg width="199" height="221" viewBox="0 0 199 221" fill="none" xmlns="http://www.w3.org/2000/svg">
<path d="M121.583 88.4167L99.4994 99.4583M99.4994 99.4583L77.416 88.4167M99.4994 99.4583V127.063M187.833 55.2917L165.749 66.3333M187.833 55.2917L165.749 44.25M187.833 55.2917V82.8958M121.583 22.1667L99.4994 11.125L77.416 22.1667M11.166 55.2917L33.2493 44.25M11.166 55.2917L33.2493 66.3333M11.166 55.2917V82.8958M99.4994 209.875L77.416 198.833M99.4994 209.875L121.583 198.833M99.4994 209.875V182.271M33.2493 176.75L11.166 165.708V138.104M165.749 176.75L187.833 165.708V138.104" stroke="#444BAB" stroke-width="22.0833" stroke-linecap="round" stroke-linejoin="round"/>
</svg>
