<svg width="45" height="45" viewBox="0 0 45 45" fill="none" xmlns="http://www.w3.org/2000/svg">
<circle cx="22.5" cy="22.5" r="21.5" stroke="#444BAB" stroke-width="2"/>
<path d="M27.6571 26.7112L29.265 28.3635C29.7124 28.8314 30.4394 28.8168 30.8868 28.3489C31.3342 27.881 31.3342 27.1206 30.8868 26.6527L26.8322 22.4123L31.9634 27.7786C32.4248 28.2612 33.1798 28.2612 33.6411 27.7786C34.1025 27.2961 34.1025 26.5065 33.6411 26.024L28.496 20.643L34.6478 27.0768C35.1372 27.5885 35.9201 27.5885 36.4095 27.0768C36.8988 26.565 36.8988 25.7461 36.4095 25.2344L30.2577 18.8006L35.277 24.05C35.7803 24.5764 36.6052 24.5764 37.1225 24.05C37.6258 23.5236 37.6258 22.6608 37.1225 22.1198L29.992 14.6625L32.97 17.777C33.5293 18.3619 34.4381 18.3619 34.9973 17.777C35.5566 17.1921 35.5566 16.2417 34.9973 15.6568L30.6771 11.1385C27.9507 8.28717 23.5186 8.28717 20.7783 11.1385C18.0519 13.9898 19.0166 19.6487 21.757 22.5C24.4834 25.3513 25.4621 31.0102 22.7357 33.8615C20.0093 36.7128 15.5772 36.7128 12.8369 33.8615L8.51664 29.3432C7.95739 28.7583 7.95739 27.8079 8.51664 27.223C9.0759 26.6381 9.98469 26.6381 10.5439 27.223L13.522 30.3375L6.3775 22.8802C5.87417 22.3538 5.87417 21.4911 6.3775 20.95C6.88083 20.4236 7.70573 20.4236 8.22304 20.95L13.2423 26.1994L7.09055 19.7656C6.6012 19.2539 6.6012 18.435 7.09055 17.9232C7.57989 17.4115 8.36285 17.4115 8.8522 17.9232L15.004 24.357L9.85886 18.976C9.39747 18.4935 9.39747 17.7039 9.85886 17.2214C10.3202 16.7388 11.0752 16.7388 11.5366 17.2214L16.6678 22.5877L12.6132 18.3473C12.1658 17.8794 12.1658 17.119 12.6132 16.6511C13.0606 16.1832 13.7876 16.1832 14.235 16.6365L15.8429 18.2888" stroke="#444BAB" stroke-width="2" stroke-miterlimit="10" stroke-linecap="round" stroke-linejoin="round"/>
</svg>
