<svg width="24" height="24" viewBox="0 0 24 24" fill="none" xmlns="http://www.w3.org/2000/svg">
<path d="M17.5 1V17.5L12 14.75L6.5 17.5V1H17.5ZM3.75 23H20.25C20.9793 23 21.6788 22.7103 22.1945 22.1945C22.7103 21.6788 23 20.9793 23 20.25V3.75C23 3.02065 22.7103 2.32118 22.1945 1.80546C21.6788 1.28973 20.9793 1 20.25 1H3.75C3.02065 1 2.32118 1.28973 1.80546 1.80546C1.28973 2.32118 1 3.02065 1 3.75V20.25C1 20.9793 1.28973 21.6788 1.80546 22.1945C2.32118 22.7103 3.02065 23 3.75 23Z" stroke="url(#paint0_linear)" stroke-width="2" stroke-linecap="round" stroke-linejoin="round"/>
<defs>
<linearGradient id="paint0_linear" x1="14.4627" y1="42.4464" x2="-27.3548" y2="28.8066" gradientUnits="userSpaceOnUse">
<stop stop-color="#4F5AED"/>
<stop offset="1" stop-color="#7D86F9"/>
</linearGradient>
</defs>
</svg>
