<svg width="28" height="28" viewBox="0 0 28 28" fill="none" xmlns="http://www.w3.org/2000/svg">
<path d="M15.4444 9.66667L19.7778 14M19.7778 14L15.4444 18.3333M19.7778 14H8.22222M27 14C27 15.7072 26.6637 17.3977 26.0104 18.9749C25.3571 20.5521 24.3995 21.9852 23.1924 23.1924C21.9852 24.3995 20.5521 25.3571 18.9749 26.0104C17.3977 26.6637 15.7072 27 14 27C12.2928 27 10.6023 26.6637 9.02512 26.0104C7.44788 25.3571 6.01477 24.3995 4.80761 23.1924C3.60045 21.9852 2.64288 20.5521 1.98957 18.9749C1.33625 17.3977 1 15.7072 1 14C1 10.5522 2.36964 7.24558 4.80761 4.80761C7.24558 2.36964 10.5522 1 14 1C17.4478 1 20.7544 2.36964 23.1924 4.80761C25.6304 7.24558 27 10.5522 27 14Z" stroke="#444BAB" stroke-width="2" stroke-linecap="round" stroke-linejoin="round"/>
</svg>
