<svg width="6" height="8" viewBox="0 0 6 8" fill="none" xmlns="http://www.w3.org/2000/svg">
<path d="M3.26035 0.142634C3.13334 -0.0475446 2.86666 -0.0475446 2.73965 0.142634L0.0727718 4.14639C0.0336483 4.20533 0.00915705 4.27632 0.00211027 4.35122C-0.00493651 4.42612 0.00574682 4.50189 0.0329335 4.56983C0.0601202 4.63777 0.102708 4.69512 0.155808 4.7353C0.208907 4.77549 0.270365 4.79687 0.333125 4.797H1.66656V7.59962C1.66656 7.70581 1.70168 7.80765 1.7642 7.88273C1.82672 7.95782 1.91151 8 1.99992 8H4.00008C4.08849 8 4.17328 7.95782 4.2358 7.88273C4.29832 7.80765 4.33344 7.70581 4.33344 7.59962V4.797H5.66688C5.72964 4.79687 5.79109 4.77549 5.84419 4.7353C5.89729 4.69512 5.93988 4.63777 5.96707 4.56983C5.99425 4.50189 6.00494 4.42612 5.99789 4.35122C5.99084 4.27632 5.96635 4.20533 5.92723 4.14639L3.26035 0.142634ZM4.00008 3.99625H3.66672V7.19925H2.33328V3.99625H1.02685L3 1.03387L4.97315 3.99625H4.00008Z" fill="white"/>
</svg>
