<svg width="20" height="20" viewBox="0 0 20 20" fill="none" xmlns="http://www.w3.org/2000/svg">
<path d="M6.66667 8.33313H6.675M10 8.33313H10.0083M13.3333 8.33313H13.3417M7.5 13.3331H4.16667C3.72464 13.3331 3.30072 13.1575 2.98816 12.845C2.67559 12.5324 2.5 12.1085 2.5 11.6665V4.9998C2.5 4.55777 2.67559 4.13385 2.98816 3.82129C3.30072 3.50872 3.72464 3.33313 4.16667 3.33313H15.8333C16.2754 3.33313 16.6993 3.50872 17.0118 3.82129C17.3244 4.13385 17.5 4.55777 17.5 4.9998V11.6665C17.5 12.1085 17.3244 12.5324 17.0118 12.845C16.6993 13.1575 16.2754 13.3331 15.8333 13.3331H11.6667L7.5 17.4998V13.3331Z" stroke="#BDBDBD" stroke-width="1.66667" stroke-linecap="round" stroke-linejoin="round"/>
</svg>
