<svg width="6" height="8" viewBox="0 0 6 8" fill="none" xmlns="http://www.w3.org/2000/svg">
<path d="M2.73965 7.85737C2.86666 8.04754 3.13334 8.04754 3.26035 7.85737L5.92723 3.85361C5.96635 3.79467 5.99084 3.72368 5.99789 3.64878C6.00494 3.57388 5.99425 3.49811 5.96707 3.43017C5.93988 3.36223 5.89729 3.30488 5.84419 3.2647C5.79109 3.22451 5.72964 3.20313 5.66688 3.203L4.33344 3.203L4.33344 0.400375C4.33344 0.294189 4.29832 0.192351 4.2358 0.117267C4.17328 0.0421816 4.08849 -1.67109e-07 4.00008 -1.74839e-07L1.99992 -3.49698e-07C1.91151 -3.57427e-07 1.82672 0.0421814 1.7642 0.117266C1.70168 0.192351 1.66656 0.294189 1.66656 0.400375L1.66656 3.203L0.333126 3.203C0.270365 3.20313 0.208907 3.22451 0.155808 3.2647C0.102709 3.30488 0.0601203 3.36223 0.0329336 3.43017C0.00574693 3.49811 -0.00493591 3.57388 0.00211086 3.64878C0.00915763 3.72368 0.0336479 3.79467 0.0727714 3.85361L2.73965 7.85737ZM1.99992 4.00375L2.33328 4.00375L2.33328 0.80075L3.66672 0.800751L3.66672 4.00375L4.97315 4.00375L3 6.96613L1.02685 4.00375L1.99992 4.00375Z" fill="white"/>
</svg>
