<svg width="15" height="15" viewBox="0 0 15 15" fill="none" xmlns="http://www.w3.org/2000/svg">
<path d="M1.50656 1.2H1.98656V4H1.43456V1.784L0.906563 1.932L0.770563 1.46L1.50656 1.2ZM0.5455 9V8.588L1.5015 7.604C1.71483 7.38 1.8215 7.19333 1.8215 7.044C1.8215 6.93467 1.78683 6.84667 1.7175 6.78C1.65083 6.71333 1.56417 6.68 1.4575 6.68C1.24683 6.68 1.09083 6.78933 0.9895 7.008L0.5255 6.736C0.6135 6.544 0.740167 6.39733 0.9055 6.296C1.07083 6.19467 1.25217 6.144 1.4495 6.144C1.70283 6.144 1.92017 6.224 2.1015 6.384C2.28283 6.54133 2.3735 6.75467 2.3735 7.024C2.3735 7.31467 2.22017 7.61333 1.9135 7.92L1.3655 8.468H2.4175V9H0.5455ZM1.82216 12.336C2.01149 12.392 2.16482 12.4907 2.28216 12.632C2.40216 12.7707 2.46216 12.9387 2.46216 13.136C2.46216 13.424 2.36482 13.6493 2.17016 13.812C1.97816 13.9747 1.74216 14.056 1.46216 14.056C1.24349 14.056 1.04749 14.0067 0.874156 13.908C0.70349 13.8067 0.57949 13.6587 0.502156 13.464L0.974156 13.192C1.04349 13.408 1.20616 13.516 1.46216 13.516C1.60349 13.516 1.71282 13.4827 1.79016 13.416C1.87016 13.3467 1.91016 13.2533 1.91016 13.136C1.91016 13.0213 1.87016 12.9293 1.79016 12.86C1.71282 12.7907 1.60349 12.756 1.46216 12.756H1.34216L1.13016 12.436L1.68216 11.716H0.586156V11.2H2.34616V11.656L1.82216 12.336Z" fill="black"/>
<path d="M4 2.5H14M4 7.5H14M4 12.5H14" stroke="black" stroke-width="1.2" stroke-linecap="round"/>
</svg>
